# xmcd
#
# Track frame offsets:
#	150
#	16003
#	30913
#	48523
#	62456
#	73245
#	85665
#	104505
#	121002
#	135967
#	152380
#	173303
#
# Disc length: 2551 seconds
#
# Revision: 1
# Processed by: cddbd v1.5.2PL0 Copyright (c) Steve Scherf et al.
# Submitted via: audiograbber 1.83.01
#
DISCID=7d09f50c
DTITLE=Ricus Nel - 'n Spesiala aand met Ricus Nel
DYEAR=2013
DGENRE=Afrikaans
TTITLE0=Sak en pak
TTITLE1=Ek wonder
TTITLE2=Madelein
TTITLE3=Some broken hearts never mend
TTITLE4=Oom Thys se dinge
TTITLE5=Rezano garcia
TTITLE6=Nogsteeds so lief vir haar
TTITLE7=Joey
TTITLE8=Outa in die langpad
TTITLE9=Skryf jou naam in my hart
TTITLE10=Spyt kom te laat
TTITLE11=Tasse vol liefde
EXTD=
EXTT0=
EXTT1=
EXTT2=
EXTT3=
EXTT4=
EXTT5=
EXTT6=
EXTT7=
EXTT8=
EXTT9=
EXTT10=
EXTT11=
PLAYORDER=
